<svg xmlns="http://www.w3.org/2000/svg" width="1600" height="900" viewBox="0 0 1600 900">
  <defs>
    <linearGradient id="pageBg" x1="0" y1="0" x2="1" y2="1">
      <stop offset="0" stop-color="#f4fbff"/>
      <stop offset="1" stop-color="#f6fff7"/>
    </linearGradient>
    <linearGradient id="techBg" x1="0" y1="0" x2="1" y2="1">
      <stop offset="0" stop-color="#e8f6ff"/>
      <stop offset=".58" stop-color="#f5fbff"/>
      <stop offset="1" stop-color="#eefbf4"/>
    </linearGradient>
    <linearGradient id="warmBg" x1="0" y1="0" x2="1" y2="1">
      <stop offset="0" stop-color="#fff7ec"/>
      <stop offset="1" stop-color="#f0faef"/>
    </linearGradient>
    <filter id="shadow" x="-10%" y="-10%" width="120%" height="130%">
      <feDropShadow dx="0" dy="14" stdDeviation="18" flood-color="#1a3550" flood-opacity=".16"/>
    </filter>
    <style>
      .title { font: 700 44px "Microsoft YaHei", "Noto Sans CJK SC", Arial, sans-serif; fill:#1d2a38; }
      .sub { font: 400 23px "Microsoft YaHei", "Noto Sans CJK SC", Arial, sans-serif; fill:#5d6c78; }
      .panelTitle { font: 700 30px "Microsoft YaHei", "Noto Sans CJK SC", Arial, sans-serif; fill:#1d2a38; }
      .label { font: 700 20px "Microsoft YaHei", "Noto Sans CJK SC", Arial, sans-serif; fill:#28445f; }
      .small { font: 400 18px "Microsoft YaHei", "Noto Sans CJK SC", Arial, sans-serif; fill:#587086; }
      .stroke { stroke-linecap:round; stroke-linejoin:round; }
      .wave { fill:none; stroke-linecap:round; stroke-width:4; }
    </style>
  </defs>

  <rect width="1600" height="900" fill="url(#pageBg)"/>
  <text x="72" y="74" class="title">修正版视觉设定：B 为主，C 为辅</text>
  <text x="72" y="118" class="sub">人物不再是符号小人，而是明确的动漫角色；患者、科研人员通过服装、姿态、道具和色彩区分。</text>

  <g transform="translate(62,166)" filter="url(#shadow)">
    <rect x="0" y="0" width="710" height="650" rx="22" fill="#fff"/>
    <rect x="0" y="0" width="710" height="500" rx="22" fill="url(#techBg)"/>
    <text x="34" y="554" class="panelTitle">主视觉：科技动画型</text>
    <text x="34" y="595" class="small">重点表现运动想象脑电、tACS 前后对比、脑网络数据变化。</text>

    <path d="M42 420 H666" stroke="#d5e4ee" stroke-width="3"/>
    <rect x="442" y="82" width="188" height="130" rx="16" fill="#ffffff" stroke="#164d5f" stroke-width="5"/>
    <rect x="466" y="226" width="140" height="18" rx="8" fill="#164d5f"/>
    <path class="wave" stroke="#00a4aa" d="M472 121 C485 105 498 137 511 121 S537 105 550 121 S576 137 589 121"/>
    <path class="wave" stroke="#42ba75" d="M472 156 C485 140 498 172 511 156 S537 140 550 156 S576 172 589 156"/>
    <path class="wave" stroke="#f59a3f" d="M472 190 C485 174 498 206 511 190 S537 174 550 190 S576 206 589 190"/>
    <text x="464" y="270" class="label">脑电数据界面</text>

    <path d="M354 126 C302 118 292 66 337 52 C365 12 427 30 430 78 C480 78 492 148 446 173 C405 205 356 185 354 126 Z" fill="#fff1ec" stroke="#ff876e" stroke-width="6"/>
    <path class="stroke" d="M340 82 C368 88 382 112 369 145" stroke="#ff876e" stroke-width="4" fill="none"/>
    <path class="stroke" d="M392 60 C380 92 405 113 440 115" stroke="#ff876e" stroke-width="4" fill="none"/>
    <path class="stroke" d="M342 154 C383 154 410 168 445 149" stroke="#ff876e" stroke-width="4" fill="none"/>
    <circle cx="396" cy="118" r="105" fill="none" stroke="#67c8ff" stroke-width="4" opacity=".46"/>
    <circle cx="396" cy="118" r="140" fill="none" stroke="#67c8ff" stroke-width="3" opacity=".24"/>
    <path d="M450 178 C489 212 505 244 520 286" stroke="#3ebcff" stroke-width="6" fill="none" class="stroke"/>
    <path d="M346 180 C315 219 295 250 279 292" stroke="#52c783" stroke-width="6" fill="none" class="stroke"/>

    <g transform="translate(125,170)">
      <ellipse cx="102" cy="296" rx="88" ry="20" fill="#b6c4cf" opacity=".55"/>
      <circle cx="100" cy="246" r="68" fill="none" stroke="#5c6b78" stroke-width="10"/>
      <path d="M53 238 H148" stroke="#5c6b78" stroke-width="9" class="stroke"/>
      <path d="M150 226 L196 270" stroke="#5c6b78" stroke-width="8" class="stroke"/>
      <path d="M64 293 H157" stroke="#5c6b78" stroke-width="8" class="stroke"/>
      <path d="M83 178 C78 212 91 236 123 242" stroke="#f1a9b8" stroke-width="18" class="stroke" fill="none"/>
      <path d="M132 178 C151 208 171 221 198 224" stroke="#f1a9b8" stroke-width="18" class="stroke" fill="none"/>
      <path d="M75 123 C53 153 49 199 82 219 L145 219 C172 190 160 142 136 121 Z" fill="#f7c9d7" stroke="#df8ca5" stroke-width="5"/>
      <path d="M66 128 C86 148 124 151 148 130" stroke="#efb0c2" stroke-width="7" class="stroke" fill="none"/>
      <circle cx="108" cy="70" r="50" fill="#ffd4ba" stroke="#e7a184" stroke-width="4"/>
      <path d="M64 76 C58 22 154 17 157 77 C139 57 93 54 64 76 Z" fill="#3a2d35"/>
      <path d="M61 76 C61 28 155 27 155 76 L153 103 C129 91 88 91 63 103 Z" fill="#141d27" opacity=".98"/>
      <path d="M67 70 C85 51 130 51 148 70" stroke="#6f7d8c" stroke-width="3" fill="none" class="stroke"/>
      <path d="M65 86 C88 76 129 76 151 86" stroke="#6f7d8c" stroke-width="3" fill="none" class="stroke"/>
      <path d="M84 42 C76 62 75 83 80 104" stroke="#6f7d8c" stroke-width="3" fill="none" class="stroke"/>
      <path d="M108 35 C105 57 105 81 108 105" stroke="#6f7d8c" stroke-width="3" fill="none" class="stroke"/>
      <path d="M133 43 C141 64 141 84 136 104" stroke="#6f7d8c" stroke-width="3" fill="none" class="stroke"/>
      <circle cx="75" cy="72" r="6" fill="#f4c84e" stroke="#fff6bd" stroke-width="2"/>
      <circle cx="94" cy="56" r="6" fill="#f4c84e" stroke="#fff6bd" stroke-width="2"/>
      <circle cx="116" cy="55" r="6" fill="#f4c84e" stroke="#fff6bd" stroke-width="2"/>
      <circle cx="139" cy="72" r="6" fill="#f4c84e" stroke="#fff6bd" stroke-width="2"/>
      <circle cx="88" cy="88" r="6" fill="#f4c84e" stroke="#fff6bd" stroke-width="2"/>
      <circle cx="112" cy="90" r="6" fill="#f4c84e" stroke="#fff6bd" stroke-width="2"/>
      <circle cx="134" cy="89" r="6" fill="#f4c84e" stroke="#fff6bd" stroke-width="2"/>
      <path d="M62 97 C57 126 64 152 82 173" stroke="#243445" stroke-width="4" fill="none" class="stroke"/>
      <path d="M154 96 C168 126 166 154 146 175" stroke="#243445" stroke-width="4" fill="none" class="stroke"/>
      <path d="M151 72 C178 70 195 78 209 96" stroke="#243445" stroke-width="4" fill="none" class="stroke"/>
      <path d="M210 96 C222 112 229 131 236 151" stroke="#2d8dbf" stroke-width="3" fill="none" class="stroke"/>
      <circle cx="91" cy="106" r="5" fill="#2f3944"/>
      <circle cx="124" cy="106" r="5" fill="#2f3944"/>
      <path d="M96 128 C106 136 119 136 128 128" stroke="#cc6f73" stroke-width="3" class="stroke" fill="none"/>
      <path d="M88 170 C119 184 146 175 165 156" stroke="#2d7daf" stroke-width="3" class="stroke" fill="none"/>
      <text x="8" y="335" class="label">患者：轮椅、网格脑电帽、电极导线</text>
    </g>

    <g transform="translate(54,136)">
      <ellipse cx="96" cy="322" rx="86" ry="19" fill="#b6c4cf" opacity=".38"/>
      <path d="M66 174 C45 207 38 254 52 306 L141 306 C154 250 147 205 124 174 Z" fill="#ffffff" stroke="#bed1dd" stroke-width="5"/>
      <path d="M86 178 L101 226 L116 178" stroke="#57a6bc" stroke-width="5" class="stroke" fill="none"/>
      <rect x="114" y="215" width="46" height="58" rx="8" fill="#1c3548" stroke="#507085" stroke-width="3"/>
      <path d="M62 202 C26 216 14 240 12 274" stroke="#fff" stroke-width="22" class="stroke" fill="none"/>
      <path d="M126 205 C158 220 181 244 197 274" stroke="#fff" stroke-width="22" class="stroke" fill="none"/>
      <path d="M64 301 L45 350" stroke="#273545" stroke-width="13" class="stroke"/>
      <path d="M127 301 L147 350" stroke="#273545" stroke-width="13" class="stroke"/>
      <circle cx="95" cy="107" r="47" fill="#ffd1b7" stroke="#df987b" stroke-width="4"/>
      <path d="M49 102 C60 47 131 43 146 98 C125 80 84 83 49 102 Z" fill="#2b3038"/>
      <path d="M78 132 C90 141 107 141 120 132" stroke="#b66469" stroke-width="3" class="stroke" fill="none"/>
      <circle cx="78" cy="112" r="5" fill="#2f3944"/>
      <circle cx="113" cy="112" r="5" fill="#2f3944"/>
      <rect x="61" y="61" width="70" height="18" rx="7" fill="#e8f1f6" stroke="#4e90a8" stroke-width="3"/>
      <text x="0" y="388" class="label">科研人员：白大褂、工牌、平板</text>
    </g>
  </g>

  <g transform="translate(828,166)" filter="url(#shadow)">
    <rect x="0" y="0" width="710" height="650" rx="22" fill="#fff"/>
    <rect x="0" y="0" width="710" height="500" rx="22" fill="url(#warmBg)"/>
    <text x="34" y="554" class="panelTitle">结尾氛围：温暖叙事型</text>
    <text x="34" y="595" class="small">从蓝绿科技感过渡到暖色光，表达“技术服务康复”的希望感。</text>

    <circle cx="590" cy="84" r="44" fill="#ffd66f" opacity=".82"/>
    <path d="M52 422 H660" stroke="#e8dac2" stroke-width="3"/>
    <rect x="466" y="110" width="136" height="96" rx="16" fill="#ffffff" stroke="#5f8d77" stroke-width="5"/>
    <path class="wave" stroke="#629b7b" d="M493 148 C505 135 517 161 529 148 S553 135 565 148"/>
    <path class="wave" stroke="#e6a451" d="M493 180 C505 167 517 193 529 180 S553 167 565 180"/>
    <text x="458" y="245" class="label">康复评估数据</text>

    <g transform="translate(150,150)">
      <ellipse cx="112" cy="318" rx="98" ry="22" fill="#c8bea7" opacity=".48"/>
      <circle cx="110" cy="268" r="74" fill="none" stroke="#65747a" stroke-width="10"/>
      <path d="M63 260 H160" stroke="#65747a" stroke-width="9" class="stroke"/>
      <path d="M162 246 L212 294" stroke="#65747a" stroke-width="8" class="stroke"/>
      <path d="M66 317 H166" stroke="#65747a" stroke-width="8" class="stroke"/>
      <path d="M86 196 C82 232 98 254 132 259" stroke="#efb1a0" stroke-width="18" class="stroke" fill="none"/>
      <path d="M137 197 C168 216 192 215 222 202" stroke="#efb1a0" stroke-width="18" class="stroke" fill="none"/>
      <path d="M224 202 C238 196 249 191 261 184" stroke="#efb1a0" stroke-width="10" class="stroke" fill="none"/>
      <path d="M82 137 C60 170 58 215 91 238 L151 238 C178 209 169 160 143 136 Z" fill="#f5d0bd" stroke="#e19a7e" stroke-width="5"/>
      <circle cx="116" cy="82" r="51" fill="#ffd2b8" stroke="#dd957b" stroke-width="4"/>
      <path d="M72 85 C69 33 164 28 165 85 C142 65 104 63 72 85 Z" fill="#3b3037"/>
      <path d="M69 86 C69 38 165 37 165 86 L163 112 C139 101 95 101 71 112 Z" fill="#172033"/>
      <path d="M75 81 C96 63 137 63 158 81" stroke="#6f7d8c" stroke-width="3" fill="none" class="stroke"/>
      <path d="M73 98 C98 88 137 88 160 98" stroke="#6f7d8c" stroke-width="3" fill="none" class="stroke"/>
      <path d="M93 52 C86 73 86 96 91 116" stroke="#6f7d8c" stroke-width="3" fill="none" class="stroke"/>
      <path d="M117 46 C114 70 114 94 117 117" stroke="#6f7d8c" stroke-width="3" fill="none" class="stroke"/>
      <path d="M142 53 C150 75 150 96 145 116" stroke="#6f7d8c" stroke-width="3" fill="none" class="stroke"/>
      <circle cx="83" cy="83" r="6" fill="#f4c84e" stroke="#fff6bd" stroke-width="2"/>
      <circle cx="101" cy="68" r="6" fill="#f4c84e" stroke="#fff6bd" stroke-width="2"/>
      <circle cx="124" cy="68" r="6" fill="#f4c84e" stroke="#fff6bd" stroke-width="2"/>
      <circle cx="149" cy="84" r="6" fill="#f4c84e" stroke="#fff6bd" stroke-width="2"/>
      <circle cx="96" cy="101" r="6" fill="#f4c84e" stroke="#fff6bd" stroke-width="2"/>
      <circle cx="121" cy="103" r="6" fill="#f4c84e" stroke="#fff6bd" stroke-width="2"/>
      <circle cx="144" cy="101" r="6" fill="#f4c84e" stroke="#fff6bd" stroke-width="2"/>
      <path d="M70 107 C65 137 72 162 91 183" stroke="#243445" stroke-width="4" fill="none" class="stroke"/>
      <path d="M164 106 C178 137 176 164 155 184" stroke="#243445" stroke-width="4" fill="none" class="stroke"/>
      <path d="M158 82 C190 82 213 94 229 116" stroke="#243445" stroke-width="4" fill="none" class="stroke"/>
      <path d="M229 116 C242 136 249 158 255 181" stroke="#2d8dbf" stroke-width="3" fill="none" class="stroke"/>
      <circle cx="99" cy="121" r="5" fill="#2f3944"/>
      <circle cx="132" cy="121" r="5" fill="#2f3944"/>
      <path d="M105 143 C116 151 130 150 140 141" stroke="#c96d69" stroke-width="3" class="stroke" fill="none"/>
      <text x="22" y="362" class="label">患者：轻微抬手/手指活动倾向</text>
    </g>

    <g transform="translate(385,144)">
      <ellipse cx="90" cy="328" rx="88" ry="19" fill="#c8bea7" opacity=".36"/>
      <path d="M60 179 C38 214 32 264 47 318 L136 318 C151 264 143 214 119 179 Z" fill="#ffffff" stroke="#bdd8ca" stroke-width="5"/>
      <path d="M63 208 C28 227 12 252 8 286" stroke="#fff" stroke-width="22" class="stroke" fill="none"/>
      <path d="M120 208 C151 229 170 255 181 286" stroke="#fff" stroke-width="22" class="stroke" fill="none"/>
      <path d="M64 313 L44 362" stroke="#2d3c48" stroke-width="13" class="stroke"/>
      <path d="M125 313 L146 362" stroke="#2d3c48" stroke-width="13" class="stroke"/>
      <circle cx="91" cy="112" r="48" fill="#ffd0b6" stroke="#dc967a" stroke-width="4"/>
      <path d="M45 106 C58 52 127 48 142 102 C122 86 80 86 45 106 Z" fill="#28313b"/>
      <circle cx="74" cy="119" r="5" fill="#2f3944"/>
      <circle cx="108" cy="119" r="5" fill="#2f3944"/>
      <path d="M80 140 C93 150 108 148 119 138" stroke="#b76468" stroke-width="3" class="stroke" fill="none"/>
      <path d="M24 285 C68 272 105 244 139 206" stroke="#f8fafb" stroke-width="10" class="stroke" fill="none"/>
      <path d="M33 285 C77 271 112 247 142 213" stroke="#76b8a0" stroke-width="4" class="stroke" fill="none"/>
      <text x="-4" y="392" class="label">科研人员：鼓励、记录、陪伴</text>
    </g>

    <path d="M356 301 C381 283 410 286 431 308" stroke="#f0b46b" stroke-width="6" class="stroke" fill="none"/>
    <text x="222" y="78" class="label">结尾从“冷科技”变成“暖希望”</text>
  </g>

  <text x="72" y="860" class="sub">如果这个角色区分方向可以，后续分镜将按此标准细化：患者、科研人员、设备、脑电数据均动漫化。</text>
</svg>
